#tb 0: 1/25
#media_type 0: video
#codec_id 0: rawvideo
#dimensions 0: 1920x1080
#sar 0: 1/1
0,          0,          0,        1,  3110400, 0x5cd0bee9
0,          1,          1,        1,  3110400, 0x19d0155c
0,          2,          2,        1,  3110400, 0x3519be4b
0,          3,          3,        1,  3110400, 0x87dc6708
0,          4,          4,        1,  3110400, 0xef3c1056
0,          5,          5,        1,  3110400, 0x5064aad2
0,          6,          6,        1,  3110400, 0xbfb35057
0,          7,          7,        1,  3110400, 0x6089eb95
0,          8,          8,        1,  3110400, 0x85de8dea
0,          9,          9,        1,  3110400, 0x216b1e5a
0,         10,         10,        1,  3110400, 0xba73bdc4
0,         11,         11,        1,  3110400, 0x536e437a
0,         12,         12,        1,  3110400, 0x4be0cdbd
0,         13,         13,        1,  3110400, 0x7316462d
0,         14,         14,        1,  3110400, 0x80eb8622
0,         15,         15,        1,  3110400, 0xa612a70b
0,         16,         16,        1,  3110400, 0x9ff65345
0,         17,         17,        1,  3110400, 0x57003dfa
0,         18,         18,        1,  3110400, 0xf29e036e
0,         19,         19,        1,  3110400, 0x70285363
